<?xml version="1.0" standalone="no"?>
<!DOCTYPE svg PUBLIC "-//W3C//DTD SVG 20010904//EN"
 "http://www.w3.org/TR/2001/REC-SVG-20010904/DTD/svg10.dtd">
<svg version="1.0" xmlns="http://www.w3.org/2000/svg"
 width="800.000000pt" height="800.000000pt" viewBox="0 0 800.000000 800.000000"
 preserveAspectRatio="xMidYMid meet">

<g transform="translate(0.000000,800.000000) scale(0.100000,-0.100000)"
fill="#000000" stroke="none">
<path d="M2865 4955 c-350 -55 -619 -249 -767 -552 -43 -88 -53 -118 -58 -182
-6 -69 -5 -78 13 -92 32 -26 222 -119 499 -244 48 -22 86 -44 85 -50 -5 -15
44 -120 93 -200 80 -131 168 -233 326 -377 62 -57 168 -125 250 -161 66 -29
91 -33 114 -16 12 8 9 9 -10 4 -22 -5 -23 -4 -7 5 10 7 24 10 30 7 7 -3 26 1
42 8 l30 13 -37 1 c-200 5 -539 284 -718 592 -22 37 -43 75 -46 84 -10 26 84
-31 316 -189 113 -77 225 -153 250 -170 68 -46 264 -188 275 -201 6 -6 21 -19
35 -30 l25 -20 -17 21 c-10 11 -18 26 -18 33 0 28 46 75 97 98 62 29 55 29
308 -23 98 -20 132 -19 145 6 15 28 21 26 230 -86 197 -105 335 -163 478 -201
84 -22 118 -26 252 -27 217 -1 365 33 537 123 246 129 457 421 505 700 6 37 9
75 5 83 -10 28 -107 65 -187 73 -144 13 -217 32 -282 72 -62 38 -177 147 -420
399 -137 142 -198 195 -198 174 0 -20 84 -121 197 -236 147 -150 235 -245 231
-249 -4 -3 -134 70 -242 137 -44 27 -74 43 -67 34 10 -12 9 -20 -3 -45 -9 -16
-16 -53 -16 -80 0 -42 5 -54 27 -75 36 -34 23 -42 -40 -26 -251 64 -781 311
-1212 565 -362 213 -488 265 -720 301 -108 16 -222 16 -330 -1z"/>
<path d="M4807 4539 c12 -12 25 -20 28 -17 3 3 -7 13 -22 23 l-28 17 22 -23z"/>
<path d="M3578 3143 c7 -3 16 -2 19 1 4 3 -2 6 -13 5 -11 0 -14 -3 -6 -6z"/>
</g>
</svg>
